<svg width="24" height="24" viewBox="0 0 24 24" fill="none" xmlns="http://www.w3.org/2000/svg">
<path d="M21.2806 18.424C20.9327 19.2275 20.521 19.9672 20.044 20.6472C19.3938 21.5743 18.8614 22.216 18.4511 22.5724C17.815 23.1573 17.1336 23.4568 16.4039 23.4739C15.88 23.4739 15.2482 23.3248 14.5128 23.0224C13.775 22.7214 13.0969 22.5724 12.4769 22.5724C11.8267 22.5724 11.1293 22.7214 10.3834 23.0224C9.63638 23.3248 9.03456 23.4824 8.57444 23.498C7.87466 23.5278 7.17716 23.2198 6.48093 22.5724C6.03656 22.1848 5.48075 21.5204 4.8149 20.5791C4.10051 19.5739 3.51317 18.4084 3.05304 17.0795C2.56026 15.6442 2.31323 14.2543 2.31323 12.9087C2.31323 11.3673 2.6463 10.0379 3.31342 8.92385C3.83772 8.02901 4.53522 7.32313 5.4082 6.80494C6.28118 6.28674 7.22443 6.02268 8.24024 6.00578C8.79605 6.00578 9.52493 6.17771 10.4307 6.5156C11.3339 6.85463 11.9139 7.02655 12.1681 7.02655C12.3582 7.02655 13.0025 6.82552 14.0947 6.42474C15.1275 6.05306 15.9992 5.89916 16.7133 5.95979C18.6484 6.11595 20.1022 6.87876 21.069 8.25304C19.3384 9.30164 18.4823 10.7703 18.4993 12.6544C18.515 14.122 19.0474 15.3432 20.0937 16.3129C20.5679 16.7629 21.0974 17.1107 21.6866 17.3578C21.5588 17.7283 21.4239 18.0832 21.2806 18.424V18.424ZM16.8425 0.960138C16.8425 2.1104 16.4223 3.1844 15.5847 4.17848C14.5738 5.36024 13.3512 6.04312 12.0253 5.93537C12.0084 5.79737 11.9986 5.65213 11.9986 5.49952C11.9986 4.39527 12.4793 3.2135 13.333 2.24725C13.7592 1.75801 14.3013 1.35123 14.9586 1.02672C15.6145 0.70706 16.2349 0.53028 16.8184 0.500008C16.8354 0.65378 16.8425 0.807561 16.8425 0.960123V0.960138Z" fill="black"/>
</svg>
