<svg width="24" height="24" viewBox="0 0 24 24" fill="none" xmlns="http://www.w3.org/2000/svg">
<path fill-rule="evenodd" clip-rule="evenodd" d="M3.5 4C3.5 2.61929 4.61929 1.5 6 1.5H18C19.3807 1.5 20.5 2.61929 20.5 4V22C20.5 22.1687 20.4149 22.3261 20.2737 22.4185C20.1325 22.5108 19.9542 22.5257 19.7996 22.4581L12 19.0458L4.20041 22.4581C4.04582 22.5257 3.86754 22.5108 3.72633 22.4185C3.58511 22.3261 3.5 22.1687 3.5 22V4ZM6 2.5C5.17157 2.5 4.5 3.17157 4.5 4V21.2355L11.7996 18.0419C11.9274 17.986 12.0726 17.986 12.2004 18.0419L19.5 21.2355V4C19.5 3.17157 18.8284 2.5 18 2.5H6Z" fill="black"/>
</svg>
